<?xml version="1.0" encoding="UTF-8"?>
<svg xmlns="http://www.w3.org/2000/svg" xmlns:xlink="http://www.w3.org/1999/xlink" viewBox="0 0 48 48" width="48px" height="48px">
<g id="surface55564435">
<path style=" stroke:none;fill-rule:nonzero;fill:rgb(100%,100%,100%);fill-opacity:1;" d="M 21.382812 0.4375 C 10.433594 1.628906 1.628906 10.433594 0.4375 21.144531 C -0.753906 32.328125 5.675781 42.324219 15.433594 46.132812 C 16.144531 46.371094 16.859375 45.894531 16.859375 44.945312 L 16.859375 41.136719 C 16.859375 41.136719 15.90625 41.375 14.71875 41.375 C 11.386719 41.375 9.957031 38.519531 9.71875 36.851562 C 9.480469 35.898438 9.007812 35.1875 8.292969 34.472656 C 7.578125 34.234375 7.339844 34.234375 7.339844 33.996094 C 7.339844 33.519531 8.054688 33.519531 8.292969 33.519531 C 9.71875 33.519531 10.910156 35.1875 11.386719 35.898438 C 12.574219 37.804688 14.003906 38.28125 14.71875 38.28125 C 15.671875 38.28125 16.382812 38.042969 16.859375 37.804688 C 17.097656 36.136719 17.8125 34.472656 19.238281 33.519531 C 13.765625 32.328125 9.71875 29.234375 9.71875 24 C 9.71875 21.382812 10.910156 18.765625 12.574219 16.859375 C 12.339844 16.382812 12.101562 15.195312 12.101562 13.527344 C 12.101562 12.574219 12.101562 11.386719 12.574219 10.433594 C 12.574219 9.957031 13.050781 9.71875 13.289062 9.71875 L 13.527344 9.71875 C 14.71875 9.957031 17.097656 10.671875 19.238281 12.8125 C 20.667969 12.339844 22.335938 12.101562 24 12.101562 C 25.664062 12.101562 27.332031 12.339844 28.761719 12.8125 C 30.902344 10.671875 33.519531 9.957031 34.710938 9.71875 L 34.949219 9.71875 C 35.425781 9.71875 35.660156 9.957031 35.898438 10.433594 C 35.898438 11.386719 35.898438 12.574219 35.898438 13.527344 C 35.898438 15.433594 35.660156 16.382812 35.425781 16.859375 C 37.089844 18.765625 38.28125 21.144531 38.28125 24 C 38.28125 29.234375 34.234375 32.328125 28.761719 33.519531 C 30.1875 34.710938 31.140625 36.851562 31.140625 38.992188 L 31.140625 45.183594 C 31.140625 45.894531 31.855469 46.609375 32.804688 46.371094 C 41.613281 42.800781 47.800781 34.234375 47.800781 24.238281 C 47.800781 9.957031 35.660156 -1.226562 21.382812 0.4375 Z M 21.382812 0.4375 "/>
</g>
</svg>
